<?xml version="1.0" encoding="utf-8"?><svg xml:space="preserve" viewBox="0 0 100 100" y="0" x="0" xmlns="http://www.w3.org/2000/svg" id="Layer_1" version="1.1" width="587px" height="587px" xmlns:xlink="http://www.w3.org/1999/xlink" style="width:100%;height:100%;background-size:initial;background-repeat-y:initial;background-repeat-x:initial;background-position-y:initial;background-position-x:initial;background-origin:initial;background-color:initial;background-clip:initial;background-attachment:initial;animation-play-state:paused" ><g class="ldl-scale" style="transform-origin:50% 50%;transform:rotate(0deg) scale(0.73, 0.73);animation-play-state:paused" ><path stroke-miterlimit="10" stroke-width="3.5" stroke="#333" clip-rule="evenodd" fill-rule="evenodd" fill="#e0e0e0" d="M77.853 48.935c.625-1.971.965-4.069.965-6.247 0-11.402-9.243-20.645-20.645-20.645-7.9 0-14.76 4.439-18.231 10.957a13.737 13.737 0 0 0-4.134-.634c-7.601 0-13.763 6.162-13.763 13.763 0 .952.097 1.881.281 2.779C15.343 50.014 10 56.041 10 63.333c0 8.076 6.547 14.624 14.624 14.624h50.753C83.453 77.957 90 71.41 90 63.333c0-7.23-5.253-13.22-12.147-14.398z" style="stroke:rgb(51, 51, 51);fill:rgb(224, 224, 224);animation-play-state:paused" ></path>
<path fill="none" d="M14.437 66.899a2.465 2.465 0 0 0-.455-.6 1.952 1.952 0 0 0-.604-.392 1.91 1.91 0 0 0-1.374-.028 12.717 12.717 0 0 0 1.043 3.05l1.704-1.26a3.792 3.792 0 0 0-.314-.77z" style="animation-play-state:paused" ></path>
<path fill="none" d="M51.695 53.722a2.465 2.465 0 0 0-.455-.6 1.964 1.964 0 0 0-.604-.392 1.966 1.966 0 0 0-.761-.141c-.375 0-.716.091-1.021.273-.307.182-.567.454-.782.815-.215.361-.381.808-.496 1.34s-.174 1.148-.174 1.848c0 .171.001.342.004.513s.013.336.029.496l4.574-3.383a3.89 3.89 0 0 0-.314-.769z" style="animation-play-state:paused" ></path>
<path fill="none" d="M84.659 56.866c0 .171.001.342.004.513.003.171.013.336.029.496l1.676-1.24a12.85 12.85 0 0 0-1.446-1.93c-.032.101-.065.199-.09.312a8.822 8.822 0 0 0-.173 1.849z" style="animation-play-state:paused" ></path>
<path fill="none" d="M15.071 69.584c-.015-.185-.029-.366-.046-.542l-1.361 1.011c.38.617.807 1.2 1.282 1.743a8.882 8.882 0 0 0 .125-2.212z" style="animation-play-state:paused" ></path>
<path fill="none" d="M52.282 55.865l-4.574 3.4c.083.287.188.551.314.794.127.243.279.451.459.624.179.175.383.31.612.406s.49.144.782.144c.375 0 .716-.091 1.021-.273a2.27 2.27 0 0 0 .782-.811c.215-.358.38-.803.496-1.336a8.734 8.734 0 0 0 .174-1.848c0-.188-.007-.373-.02-.558-.015-.185-.029-.366-.046-.542z" style="animation-play-state:paused" ></path>
<path fill="none" d="M61.009 66.899a2.465 2.465 0 0 0-.455-.6c-.177-.167-.378-.299-.604-.392s-.48-.141-.761-.141c-.375 0-.716.091-1.021.273-.307.182-.567.454-.782.815s-.38.808-.496 1.34a8.74 8.74 0 0 0-.174 1.848c0 .171.001.342.004.513s.013.336.029.496l4.574-3.383a3.806 3.806 0 0 0-.314-.769z" style="animation-play-state:paused" ></path>
<path fill="none" d="M13.639 60.96c.307-.182.567-.452.782-.811s.38-.803.496-1.336a8.734 8.734 0 0 0 .174-1.848c0-.188-.007-.373-.02-.558-.015-.185-.029-.366-.046-.542l-1.673 1.243a12.8 12.8 0 0 0-1.41 4.012c.203.07.425.113.675.113.375 0 .716-.091 1.022-.273z" style="animation-play-state:paused" ></path>
<path fill="none" d="M51.695 40.546a2.465 2.465 0 0 0-.455-.6 1.964 1.964 0 0 0-.604-.392 1.966 1.966 0 0 0-.761-.141c-.375 0-.716.091-1.021.273-.307.182-.567.454-.782.815s-.381.808-.496 1.34-.174 1.148-.174 1.848c0 .171.001.342.004.513s.013.336.029.496l4.574-3.383a3.89 3.89 0 0 0-.314-.769z" style="animation-play-state:paused" ></path>
<path fill="none" d="M52.282 42.688l-4.574 3.4c.083.287.188.551.314.794.127.243.279.451.459.624.179.175.383.31.612.406.229.096.49.144.782.144.375 0 .716-.091 1.021-.273a2.27 2.27 0 0 0 .782-.811c.215-.358.38-.803.496-1.336a8.734 8.734 0 0 0 .174-1.848c0-.188-.007-.373-.02-.558-.015-.184-.029-.365-.046-.542z" style="animation-play-state:paused" ></path>
<path fill="none" d="M61.596 69.041l-4.574 3.4c.083.287.188.552.314.794.127.243.279.451.459.624.179.175.383.31.612.406.229.096.49.144.782.144.375 0 .716-.091 1.021-.273a2.27 2.27 0 0 0 .782-.811c.215-.358.38-.803.496-1.336a8.734 8.734 0 0 0 .174-1.848c0-.188-.007-.373-.02-.558a27.538 27.538 0 0 0-.046-.542z" style="animation-play-state:paused" ></path>
<path fill="none" d="M33.066 40.546a2.44 2.44 0 0 0-.455-.6 1.952 1.952 0 0 0-.604-.392 1.966 1.966 0 0 0-.761-.141c-.375 0-.716.091-1.021.273-.307.182-.567.454-.782.815-.215.361-.381.808-.496 1.34a8.74 8.74 0 0 0-.174 1.848c0 .171.001.342.004.513s.013.336.029.496l4.574-3.383a3.83 3.83 0 0 0-.314-.769z" style="animation-play-state:paused" ></path>
<path fill="none" d="M33.653 42.688l-4.574 3.4c.083.287.188.551.314.794.127.243.279.451.459.624.179.175.383.31.612.406.229.096.49.144.782.144.375 0 .716-.091 1.021-.273a2.27 2.27 0 0 0 .782-.811c.215-.358.381-.803.496-1.336a8.734 8.734 0 0 0 .174-1.848c0-.188-.007-.373-.02-.558a27.538 27.538 0 0 0-.046-.542z" style="animation-play-state:paused" ></path>
<path fill="none" d="M42.968 69.041l-4.574 3.4c.083.287.188.552.314.794.127.243.279.451.459.624.179.175.383.31.612.406s.49.144.782.144c.375 0 .716-.091 1.021-.273a2.27 2.27 0 0 0 .782-.811c.215-.358.381-.803.496-1.336a8.734 8.734 0 0 0 .174-1.848c0-.188-.007-.373-.02-.558l-.046-.542z" style="animation-play-state:paused" ></path>
<path fill="none" d="M33.066 53.722a2.44 2.44 0 0 0-.455-.6 1.952 1.952 0 0 0-.604-.392 1.966 1.966 0 0 0-.761-.141c-.375 0-.716.091-1.021.273-.307.182-.567.454-.782.815-.215.361-.381.808-.496 1.34a8.74 8.74 0 0 0-.174 1.848c0 .171.001.342.004.513s.013.336.029.496l4.574-3.383a3.83 3.83 0 0 0-.314-.769z" style="animation-play-state:paused" ></path>
<path fill="none" d="M33.653 55.865l-4.574 3.4c.083.287.188.551.314.794.127.243.279.451.459.624.179.175.383.31.612.406s.49.144.782.144c.375 0 .716-.091 1.021-.273a2.27 2.27 0 0 0 .782-.811c.215-.358.381-.803.496-1.336a8.734 8.734 0 0 0 .174-1.848c0-.188-.007-.373-.02-.558a26.295 26.295 0 0 0-.046-.542z" style="animation-play-state:paused" ></path>
<path fill="none" d="M23.752 66.899a2.465 2.465 0 0 0-.455-.6 1.952 1.952 0 0 0-.604-.392 1.966 1.966 0 0 0-.761-.141c-.375 0-.716.091-1.021.273-.307.182-.567.454-.782.815-.215.361-.38.808-.496 1.34a8.74 8.74 0 0 0-.174 1.848c0 .171.001.342.004.513s.013.336.029.496l4.574-3.383a3.925 3.925 0 0 0-.314-.769z" style="animation-play-state:paused" ></path>
<path fill="none" d="M24.339 69.041l-4.574 3.4c.083.287.188.552.314.794.127.243.279.451.459.624.179.175.383.31.612.406.229.096.49.144.782.144.375 0 .716-.091 1.021-.273.307-.182.567-.452.782-.811s.381-.803.496-1.336a8.734 8.734 0 0 0 .174-1.848c0-.188-.007-.373-.02-.558-.015-.184-.029-.365-.046-.542z" style="animation-play-state:paused" ></path>
<path fill="none" d="M42.38 66.899a2.465 2.465 0 0 0-.455-.6 1.952 1.952 0 0 0-.604-.392 1.966 1.966 0 0 0-.761-.141c-.375 0-.716.091-1.021.273-.307.182-.567.454-.782.815-.215.361-.381.808-.496 1.34a8.74 8.74 0 0 0-.174 1.848c0 .171.001.342.004.513s.013.336.029.496l4.574-3.383a3.806 3.806 0 0 0-.314-.769z" style="animation-play-state:paused" ></path>
<path fill="none" d="M80.225 55.865l-4.574 3.4c.083.287.188.551.314.794.127.243.279.451.459.624.179.175.383.31.612.406.229.096.49.144.782.144.375 0 .716-.091 1.021-.273.307-.182.567-.452.782-.811s.38-.803.496-1.336a8.734 8.734 0 0 0 .174-1.848c0-.188-.007-.373-.02-.558-.015-.185-.029-.366-.046-.542z" style="animation-play-state:paused" ></path>
<path fill="none" d="M79.638 53.722a2.465 2.465 0 0 0-.455-.6 1.952 1.952 0 0 0-.604-.392 1.966 1.966 0 0 0-.761-.141c-.375 0-.716.091-1.021.273-.307.182-.567.454-.782.815-.215.361-.38.808-.496 1.34a8.74 8.74 0 0 0-.174 1.848c0 .171.001.342.004.513.003.171.013.336.029.496l4.574-3.383a3.89 3.89 0 0 0-.314-.769z" style="animation-play-state:paused" ></path>
<path fill="none" d="M47.435 31.522l4.574-3.383c-.083-.281-.188-.538-.314-.769s-.279-.431-.455-.6a1.964 1.964 0 0 0-.604-.392 1.966 1.966 0 0 0-.761-.141c-.375 0-.716.091-1.021.273-.307.182-.567.454-.782.815s-.381.808-.496 1.34-.174 1.148-.174 1.848c0 .171.001.342.004.513s.012.336.029.496z" style="animation-play-state:paused" ></path>
<path fill="none" d="M80.225 69.041l-4.574 3.4c.083.287.188.552.314.794.127.243.279.451.459.624.179.175.383.31.612.406.229.096.49.144.782.144.375 0 .716-.091 1.021-.273.307-.182.567-.452.782-.811s.38-.803.496-1.336a8.734 8.734 0 0 0 .174-1.848c0-.188-.007-.373-.02-.558-.015-.184-.029-.365-.046-.542z" style="animation-play-state:paused" ></path>
<path fill="none" d="M84.121 67.668l-.529-1.224 3.441-1.812h1.151c.043-.427.066-.861.066-1.299 0-.356-.019-.707-.047-1.056a3.81 3.81 0 0 1-1.154.189 3.738 3.738 0 0 1-1.58-.327 3.124 3.124 0 0 1-1.216-1.005c-.336-.452-.596-1.029-.778-1.729-.182-.7-.273-1.53-.273-2.49 0-.827.084-1.583.252-2.267.093-.377.222-.71.367-1.026a12.834 12.834 0 0 0-6.264-2.963l-1.98-.338.456-1.437a3.132 3.132 0 0 1-1.094-.927c-.336-.452-.596-1.028-.778-1.729-.182-.7-.273-1.53-.273-2.49 0-.827.084-1.583.252-2.267.168-.684.419-1.269.754-1.758a3.489 3.489 0 0 1 1.253-1.132c.129-.069.275-.109.418-.154a18.74 18.74 0 0 0-.955-3.005 3.03 3.03 0 0 1-.671-.641c-.336-.452-.596-1.029-.778-1.729-.043-.167-.069-.359-.097-.546a19.042 19.042 0 0 0-4.386-4.772v6.89h2.415v1.34h-6.791v-1.34h2.779v-7.892l-2.589 1.406-.529-1.224 1.886-.993a18.76 18.76 0 0 0-8.677-2.129c-2.478 0-4.877.491-7.092 1.388.156.043.313.083.458.149.474.219.88.555 1.216 1.009.336.456.596 1.033.778 1.733.182.7.273 1.53.273 2.49 0 .827-.083 1.582-.248 2.262-.165.682-.416 1.267-.753 1.754a3.534 3.534 0 0 1-1.253 1.134c-.5.267-1.085.401-1.758.401a3.738 3.738 0 0 1-1.58-.327 3.124 3.124 0 0 1-1.216-1.005c-.336-.452-.596-1.029-.778-1.729-.182-.7-.273-1.53-.273-2.49 0-.827.084-1.583.252-2.267.027-.11.065-.207.101-.307a18.944 18.944 0 0 0-4.564 5.4v1.234h2.415v1.34h-6.791v-1.34h1.892a12 12 0 0 0-3.444-.508c-.485 0-.96.037-1.43.093-.064.127-.125.257-.202.369a3.534 3.534 0 0 1-1.253 1.134c-.5.267-1.085.401-1.758.401a3.751 3.751 0 0 1-1.487-.297c-3.516 2.098-5.884 5.929-5.884 10.313 0 .56.053 1.118.13 1.672h1.599v1.34h-1.365l.247 1.21-1.807.286a12.852 12.852 0 0 0-6.56 3.106c.086.216.171.433.236.683.182.7.273 1.53.273 2.49 0 .827-.083 1.582-.248 2.262-.165.682-.416 1.267-.753 1.754a3.534 3.534 0 0 1-1.253 1.134c-.5.267-1.086.401-1.758.401-.26 0-.504-.032-.742-.077-.022.312-.042.626-.042.944 0 .439.023.872.066 1.299.278-.061.569-.099.884-.099.579 0 1.106.109 1.58.326.474.219.88.555 1.216 1.009.336.456.596 1.033.778 1.733.182.7.273 1.53.273 2.49 0 .827-.083 1.582-.248 2.262-.052.216-.126.408-.198.602a12.805 12.805 0 0 0 8.523 3.251h50.752c4.894 0 9.157-2.746 11.334-6.777v-3.168l-2.589 1.409zM21.833 51.456h1.274v9.521h2.415v1.34h-6.791v-1.34h2.779v-7.892l-2.589 1.406-.529-1.224 3.441-1.811zm3.78 20.898c-.165.682-.416 1.267-.753 1.754a3.534 3.534 0 0 1-1.253 1.134c-.5.267-1.085.401-1.758.401a3.738 3.738 0 0 1-1.58-.327 3.124 3.124 0 0 1-1.216-1.005c-.336-.452-.596-1.029-.778-1.729-.182-.7-.273-1.53-.273-2.49 0-.827.084-1.583.252-2.267.168-.684.419-1.269.754-1.758.333-.487.751-.865 1.253-1.132s1.086-.402 1.754-.402c.579 0 1.106.109 1.58.326.474.219.88.555 1.216 1.009.336.456.596 1.033.778 1.733.182.7.273 1.53.273 2.49a9.657 9.657 0 0 1-.249 2.263zm9.223 3.14h-6.791v-1.34h2.779v-7.892l-2.589 1.406-.529-1.224 3.441-1.812h1.274v9.521h2.415v1.341zm.091-16.317c-.165.682-.416 1.267-.753 1.754a3.534 3.534 0 0 1-1.253 1.134c-.5.267-1.085.401-1.758.401a3.738 3.738 0 0 1-1.58-.327 3.124 3.124 0 0 1-1.216-1.005c-.336-.452-.596-1.029-.778-1.729s-.273-1.53-.273-2.49c0-.827.084-1.583.252-2.267.168-.684.419-1.269.754-1.758.333-.487.751-.865 1.253-1.132s1.086-.402 1.754-.402c.579 0 1.106.109 1.58.326.474.219.88.555 1.216 1.009.336.456.596 1.033.778 1.733.182.7.273 1.53.273 2.49a9.598 9.598 0 0 1-.249 2.263zm0-13.176c-.165.682-.416 1.267-.753 1.754a3.534 3.534 0 0 1-1.253 1.134c-.5.267-1.085.401-1.758.401a3.738 3.738 0 0 1-1.58-.327 3.124 3.124 0 0 1-1.216-1.005c-.336-.452-.596-1.028-.778-1.729s-.273-1.53-.273-2.49c0-.827.084-1.583.252-2.267.168-.684.419-1.269.754-1.758a3.489 3.489 0 0 1 1.253-1.132c.502-.267 1.086-.402 1.754-.402.579 0 1.106.109 1.58.326.474.219.88.555 1.216 1.009.336.456.596 1.033.778 1.733s.273 1.53.273 2.49a9.605 9.605 0 0 1-.249 2.263zm5.534-7.722h1.274V47.8h2.415v1.34h-6.791V47.8h2.779v-7.892l-2.589 1.406-.529-1.224 3.441-1.811zm0 13.177h1.274v9.521h2.415v1.34h-6.791v-1.34h2.779v-7.892l-2.589 1.406-.529-1.224 3.441-1.811zm3.781 20.898c-.165.682-.416 1.267-.753 1.754a3.534 3.534 0 0 1-1.253 1.134c-.5.267-1.085.401-1.758.401a3.738 3.738 0 0 1-1.58-.327 3.124 3.124 0 0 1-1.216-1.005c-.336-.452-.596-1.029-.778-1.729-.182-.7-.273-1.53-.273-2.49 0-.827.084-1.583.252-2.267.168-.684.419-1.269.754-1.758.333-.487.751-.865 1.253-1.132s1.086-.402 1.754-.402c.579 0 1.106.109 1.58.326.474.219.88.555 1.216 1.009.336.456.596 1.033.778 1.733s.273 1.53.273 2.49a9.657 9.657 0 0 1-.249 2.263zm9.223 3.14h-6.791v-1.34h2.779v-7.892l-2.589 1.406-.529-1.224 3.441-1.812h1.274v9.521h2.415v1.341zm.091-16.317c-.165.682-.416 1.267-.753 1.754a3.534 3.534 0 0 1-1.253 1.134c-.5.267-1.085.401-1.758.401a3.738 3.738 0 0 1-1.58-.327 3.124 3.124 0 0 1-1.216-1.005c-.336-.452-.596-1.029-.778-1.729-.182-.7-.273-1.53-.273-2.49 0-.827.084-1.583.252-2.267.168-.684.419-1.269.754-1.758.333-.487.751-.865 1.253-1.132s1.086-.402 1.754-.402c.579 0 1.106.109 1.58.326.474.219.88.555 1.216 1.009.336.456.596 1.033.778 1.733.182.7.273 1.53.273 2.49a9.651 9.651 0 0 1-.249 2.263zm0-13.176c-.165.682-.416 1.267-.753 1.754a3.534 3.534 0 0 1-1.253 1.134c-.5.267-1.085.401-1.758.401a3.738 3.738 0 0 1-1.58-.327 3.124 3.124 0 0 1-1.216-1.005c-.336-.452-.596-1.028-.778-1.729-.182-.7-.273-1.53-.273-2.49 0-.827.084-1.583.252-2.267.168-.684.419-1.269.754-1.758a3.489 3.489 0 0 1 1.253-1.132c.502-.267 1.086-.402 1.754-.402.579 0 1.106.109 1.58.326.474.219.88.555 1.216 1.009.336.456.596 1.033.778 1.733.182.7.273 1.53.273 2.49a9.657 9.657 0 0 1-.249 2.263zm9.314 26.353c-.165.682-.416 1.267-.753 1.754a3.534 3.534 0 0 1-1.253 1.134c-.5.267-1.086.401-1.758.401a3.738 3.738 0 0 1-1.58-.327 3.124 3.124 0 0 1-1.216-1.005c-.336-.452-.596-1.029-.778-1.729-.182-.7-.273-1.53-.273-2.49 0-.827.084-1.583.252-2.267s.419-1.269.754-1.758c.333-.487.751-.865 1.253-1.132s1.086-.402 1.754-.402c.579 0 1.106.109 1.58.326.474.219.88.555 1.216 1.009.336.456.596 1.033.778 1.733.182.7.273 1.53.273 2.49a9.605 9.605 0 0 1-.249 2.263zM62.779 47.8v1.34h-6.791V47.8h2.779v-7.892l-2.589 1.406-.529-1.224 3.441-1.812h1.274V47.8h2.415zm-3.689 3.656h1.274v9.521h2.415v1.34h-6.791v-1.34h2.779v-7.892l-2.589 1.406-.529-1.224 3.441-1.811zm3.78-18.632c-.165.682-.416 1.267-.753 1.754a3.534 3.534 0 0 1-1.253 1.134c-.5.267-1.086.401-1.758.401a3.738 3.738 0 0 1-1.58-.327 3.124 3.124 0 0 1-1.216-1.005c-.336-.452-.596-1.029-.778-1.729-.182-.7-.273-1.53-.273-2.49 0-.827.084-1.583.252-2.267s.419-1.269.754-1.758c.333-.487.751-.865 1.253-1.132s1.086-.402 1.754-.402c.579 0 1.106.109 1.58.326.474.219.88.555 1.216 1.009.336.456.596 1.033.778 1.733.182.7.273 1.53.273 2.49a9.598 9.598 0 0 1-.249 2.263zm9.224 42.67h-6.791v-1.34h2.779v-7.892l-2.589 1.406-.529-1.224 3.441-1.812h1.274v9.521h2.415v1.341zm0-13.177h-6.791v-1.34h2.779v-7.892l-2.589 1.406-.529-1.224 3.441-1.812h1.274v9.521h2.415v1.341zm0-13.176h-6.791V47.8h2.779v-7.892l-2.589 1.406-.529-1.224 3.441-1.812h1.274V47.8h2.415v1.341zm9.405 23.213c-.165.682-.416 1.267-.753 1.754a3.534 3.534 0 0 1-1.253 1.134c-.5.267-1.086.401-1.758.401a3.738 3.738 0 0 1-1.58-.327 3.124 3.124 0 0 1-1.216-1.005c-.336-.452-.596-1.029-.778-1.729-.182-.7-.273-1.53-.273-2.49 0-.827.084-1.583.252-2.267s.419-1.269.754-1.758a3.489 3.489 0 0 1 1.253-1.132c.502-.267 1.086-.402 1.754-.402.579 0 1.106.109 1.58.326.474.219.88.555 1.216 1.009.336.456.596 1.033.778 1.733.182.7.273 1.53.273 2.49a9.657 9.657 0 0 1-.249 2.263zm0-13.177c-.165.682-.416 1.267-.753 1.754a3.534 3.534 0 0 1-1.253 1.134c-.5.267-1.086.401-1.758.401a3.738 3.738 0 0 1-1.58-.327 3.124 3.124 0 0 1-1.216-1.005c-.336-.452-.596-1.029-.778-1.729-.182-.7-.273-1.53-.273-2.49 0-.827.084-1.583.252-2.267.168-.684.419-1.269.754-1.758a3.489 3.489 0 0 1 1.253-1.132c.502-.267 1.086-.402 1.754-.402.579 0 1.106.109 1.58.326.474.219.88.555 1.216 1.009.336.456.596 1.033.778 1.733.182.7.273 1.53.273 2.49a9.651 9.651 0 0 1-.249 2.263z" style="animation-play-state:paused" ></path>
<path fill="none" d="M85.279 60.059c.127.243.279.451.459.624.179.175.383.31.612.406.229.096.49.144.782.144.331 0 .631-.083.908-.226a12.781 12.781 0 0 0-1.054-3.245l-2.021 1.502c.083.287.187.552.314.795z" style="animation-play-state:paused" ></path>
<path fill="none" d="M79.638 66.899a2.465 2.465 0 0 0-.455-.6 1.952 1.952 0 0 0-.604-.392 1.966 1.966 0 0 0-.761-.141c-.375 0-.716.091-1.021.273-.307.182-.567.454-.782.815s-.38.808-.496 1.34a8.74 8.74 0 0 0-.174 1.848c0 .171.001.342.004.513.003.171.013.336.029.496l4.574-3.383a3.865 3.865 0 0 0-.314-.769z" style="animation-play-state:paused" ></path>
<path fill="none" d="M48.022 33.706c.127.243.279.451.459.624.179.175.383.31.612.406s.49.144.782.144c.375 0 .716-.091 1.021-.273a2.27 2.27 0 0 0 .782-.811c.215-.358.38-.803.496-1.336a8.734 8.734 0 0 0 .174-1.848c0-.188-.007-.373-.02-.558-.015-.185-.029-.366-.046-.542l-4.574 3.4c.082.286.187.551.314.794z" style="animation-play-state:paused" ></path>
<path fill="none" d="M76.015 40.501c-.215.361-.38.808-.496 1.34a8.74 8.74 0 0 0-.174 1.848c0 .171.001.342.004.513.003.171.013.336.029.496l1.66-1.228c.011-.261.03-.521.03-.783 0-1.025-.105-2.024-.263-3.006a.069.069 0 0 0-.008.003c-.307.184-.567.456-.782.817z" style="animation-play-state:paused" ></path>
<path fill="none" d="M61.596 29.512l-4.574 3.4c.083.287.188.551.314.794.127.243.279.451.459.624.179.175.383.31.612.406.229.096.49.144.782.144.375 0 .716-.091 1.021-.273a2.27 2.27 0 0 0 .782-.811c.215-.358.38-.803.496-1.336a8.734 8.734 0 0 0 .174-1.848c0-.188-.007-.373-.02-.558a26.295 26.295 0 0 0-.046-.542z" style="animation-play-state:paused" ></path>
<path fill="none" d="M61.009 27.369a2.465 2.465 0 0 0-.455-.6c-.177-.167-.378-.299-.604-.392s-.48-.141-.761-.141c-.375 0-.716.091-1.021.273-.307.182-.567.454-.782.815s-.38.808-.496 1.34a8.74 8.74 0 0 0-.174 1.848c0 .171.001.342.004.513s.013.336.029.496l4.574-3.383a3.83 3.83 0 0 0-.314-.769z" style="animation-play-state:paused" ></path>
<path fill="none" d="M75.965 46.882c.127.243.279.451.459.624l.007.006c.204-.773.359-1.556.464-2.348l-1.244.924c.082.287.187.552.314.794z" style="animation-play-state:paused" ></path>
<path fill="#a0c8d7" d="M32.922 35.712a3.542 3.542 0 0 0 1.253-1.134c.077-.112.138-.242.202-.369a11.914 11.914 0 0 0-4.7 1.607c.451.192.944.297 1.487.297.672 0 1.258-.134 1.758-.401z" style="fill:rgb(160, 200, 215);animation-play-state:paused" ></path>
<path fill="#a0c8d7" d="M37.359 35.964h6.791v-1.34h-2.415V33.39c-.082.145-.171.285-.25.433l-.683 1.283-1.387-.436c-.054-.017-.11-.029-.164-.045h-1.892v1.339z" style="fill:rgb(160, 200, 215);animation-play-state:paused" ></path>
<path fill="#a0c8d7" d="M45.946 30.562c0 .96.091 1.79.273 2.49.182.7.441 1.277.778 1.729.336.452.742.788 1.216 1.005a3.738 3.738 0 0 0 1.58.327c.673 0 1.258-.134 1.758-.401a3.542 3.542 0 0 0 1.253-1.134c.336-.487.587-1.072.753-1.754.165-.68.248-1.435.248-2.262 0-.96-.091-1.789-.273-2.49-.182-.7-.441-1.278-.778-1.733a3.143 3.143 0 0 0-1.216-1.009c-.145-.066-.302-.107-.458-.149a18.86 18.86 0 0 0-4.781 2.809c-.036.1-.074.196-.101.307a9.434 9.434 0 0 0-.252 2.265zm6.336-1.05c.017.176.031.358.046.542.013.185.02.37.02.558 0 .7-.058 1.317-.174 1.848-.116.533-.281.978-.496 1.336-.215.358-.475.629-.782.811a1.956 1.956 0 0 1-1.021.273c-.292 0-.553-.048-.782-.144s-.433-.232-.612-.406a2.413 2.413 0 0 1-.459-.624 4.197 4.197 0 0 1-.314-.794l4.574-3.4zm-4.707-.848c.116-.532.281-.979.496-1.34s.475-.633.782-.815a1.956 1.956 0 0 1 1.021-.273c.281 0 .535.047.761.141.226.094.427.225.604.392.176.169.328.369.455.6s.232.488.314.769l-4.574 3.383c-.017-.16-.027-.325-.029-.496s-.004-.342-.004-.513c0-.7.058-1.315.174-1.848z" style="fill:rgb(160, 200, 215);animation-play-state:paused" ></path>
<path fill="#a0c8d7" d="M62.068 26.339a3.143 3.143 0 0 0-1.216-1.009 3.753 3.753 0 0 0-1.58-.326c-.667 0-1.252.134-1.754.402s-.92.645-1.253 1.132c-.335.489-.585 1.074-.754 1.758s-.252 1.439-.252 2.267c0 .96.091 1.79.273 2.49.182.7.441 1.277.778 1.729.336.452.742.788 1.216 1.005a3.738 3.738 0 0 0 1.58.327c.673 0 1.258-.134 1.758-.401a3.542 3.542 0 0 0 1.253-1.134c.336-.487.587-1.072.753-1.754.165-.68.248-1.435.248-2.262 0-.96-.091-1.789-.273-2.49-.182-.701-.441-1.278-.777-1.734zm-5.319 5.183c-.017-.16-.027-.325-.029-.496s-.004-.342-.004-.513c0-.7.058-1.316.174-1.848.116-.532.281-.979.496-1.34s.475-.633.782-.815a1.956 1.956 0 0 1 1.021-.273c.281 0 .535.047.761.141s.427.225.604.392c.176.169.328.369.455.6s.232.488.314.769l-4.574 3.383zm4.74.938c-.116.533-.281.978-.496 1.336-.215.358-.475.629-.782.811a1.956 1.956 0 0 1-1.021.273c-.292 0-.553-.048-.782-.144a1.958 1.958 0 0 1-.612-.406 2.413 2.413 0 0 1-.459-.624 4.197 4.197 0 0 1-.314-.794l4.574-3.4c.017.176.031.358.046.542.013.185.02.37.02.558 0 .7-.058 1.317-.174 1.848z" style="fill:rgb(160, 200, 215);animation-play-state:paused" ></path>
<path fill="#a0c8d7" d="M65.492 28.139l2.589-1.406v7.892h-2.779v1.34h6.791v-1.34h-2.415v-6.89a18.973 18.973 0 0 0-2.829-1.813l-1.886.993.529 1.224z" style="fill:rgb(160, 200, 215);animation-play-state:paused" ></path>
<path fill="#a0c8d7" d="M74.939 34.781c.195.262.427.463.671.641a18.887 18.887 0 0 0-1.546-2.916c.029.187.054.38.097.546.183.701.442 1.277.778 1.729z" style="fill:rgb(160, 200, 215);animation-play-state:paused" ></path>
<path fill="#a0c8d7" d="M25.522 47.8h-1.599c.035.253.064.508.115.757l.119.583h1.365V47.8z" style="fill:rgb(160, 200, 215);animation-play-state:paused" ></path>
<path fill="#a0c8d7" d="M34.125 39.516a3.143 3.143 0 0 0-1.216-1.009 3.753 3.753 0 0 0-1.58-.326c-.667 0-1.252.134-1.754.402s-.92.645-1.253 1.132c-.335.489-.586 1.074-.754 1.758a9.502 9.502 0 0 0-.252 2.267c0 .96.091 1.79.273 2.49s.441 1.277.778 1.729c.336.452.742.788 1.216 1.005a3.738 3.738 0 0 0 1.58.327c.673 0 1.258-.134 1.758-.401a3.542 3.542 0 0 0 1.253-1.134c.336-.487.587-1.072.753-1.754.165-.68.248-1.435.248-2.262 0-.96-.091-1.789-.273-2.49s-.441-1.279-.777-1.734zm-5.319 5.182c-.017-.16-.027-.325-.029-.496s-.004-.342-.004-.513c0-.7.058-1.316.174-1.848.116-.532.281-.979.496-1.34.215-.361.475-.633.782-.815a1.956 1.956 0 0 1 1.021-.273c.281 0 .535.047.761.141.226.094.427.225.604.392.177.169.328.369.455.6.127.232.232.488.314.769l-4.574 3.383zm4.74.939c-.116.533-.281.978-.496 1.336-.215.358-.475.629-.782.811a1.956 1.956 0 0 1-1.021.273c-.292 0-.553-.048-.782-.144a1.976 1.976 0 0 1-.612-.406 2.413 2.413 0 0 1-.459-.624 4.197 4.197 0 0 1-.314-.794l4.574-3.4c.017.177.031.358.046.542.013.185.02.37.02.558-.001.7-.058 1.317-.174 1.848z" style="fill:rgb(160, 200, 215);animation-play-state:paused" ></path>
<path d="M40.139 39.909V47.8h-2.78v1.341h6.792V47.8h-2.416v-9.521h-1.274l-3.441 1.812.529 1.224z" fill="#a0c8d7" style="fill:rgb(160, 200, 215);animation-play-state:paused" ></path>
<path fill="#a0c8d7" d="M52.753 39.516a3.143 3.143 0 0 0-1.216-1.009 3.753 3.753 0 0 0-1.58-.326c-.667 0-1.252.134-1.754.402s-.92.645-1.253 1.132c-.335.489-.585 1.074-.754 1.758a9.502 9.502 0 0 0-.252 2.267c0 .96.091 1.79.273 2.49.182.7.441 1.277.778 1.729.336.452.742.788 1.216 1.005a3.738 3.738 0 0 0 1.58.327c.673 0 1.258-.134 1.758-.401a3.542 3.542 0 0 0 1.253-1.134c.336-.487.587-1.072.753-1.754.165-.68.248-1.435.248-2.262 0-.96-.091-1.789-.273-2.49-.181-.701-.44-1.279-.777-1.734zm-5.318 5.182c-.017-.16-.027-.325-.029-.496s-.004-.342-.004-.513c0-.7.058-1.316.174-1.848s.281-.979.496-1.34.475-.633.782-.815a1.956 1.956 0 0 1 1.021-.273c.281 0 .535.047.761.141.226.094.427.225.604.392.176.169.328.369.455.6s.232.488.314.769l-4.574 3.383zm4.739.939c-.116.533-.281.978-.496 1.336-.215.358-.475.629-.782.811a1.956 1.956 0 0 1-1.021.273c-.292 0-.553-.048-.782-.144a1.976 1.976 0 0 1-.612-.406 2.413 2.413 0 0 1-.459-.624 4.197 4.197 0 0 1-.314-.794l4.574-3.4c.017.177.031.358.046.542.013.185.02.37.02.558 0 .7-.058 1.317-.174 1.848z" style="fill:rgb(160, 200, 215);animation-play-state:paused" ></path>
<path d="M59.09 38.279l-3.441 1.812.529 1.224 2.589-1.406V47.8h-2.779v1.341h6.791V47.8h-2.415v-9.521z" fill="#a0c8d7" style="fill:rgb(160, 200, 215);animation-play-state:paused" ></path>
<path d="M69.678 38.279h-1.274l-3.441 1.812.529 1.224 2.59-1.406V47.8h-2.78v1.341h6.792V47.8h-2.416z" fill="#a0c8d7" style="fill:rgb(160, 200, 215);animation-play-state:paused" ></path>
<path fill="#a0c8d7" d="M74.894 39.714c-.335.489-.585 1.074-.754 1.758a9.502 9.502 0 0 0-.252 2.267c0 .96.091 1.79.273 2.49.182.7.441 1.277.778 1.729.305.41.675.711 1.094.927l.152-.478c.094-.295.167-.595.246-.894l-.007-.006a2.413 2.413 0 0 1-.459-.624 4.197 4.197 0 0 1-.314-.794l1.244-.924c.074-.561.12-1.126.143-1.693l-1.66 1.228a5.27 5.27 0 0 1-.029-.496 29.244 29.244 0 0 1-.004-.513c0-.7.058-1.316.174-1.848.116-.532.281-.979.496-1.34s.475-.633.782-.815l.008-.003a18.528 18.528 0 0 0-.24-1.255c-.143.045-.289.086-.418.154-.502.265-.92.643-1.253 1.13z" style="fill:rgb(160, 200, 215);animation-play-state:paused" ></path>
<path fill="#a0c8d7" d="M14.293 62.065a3.542 3.542 0 0 0 1.253-1.134c.336-.487.587-1.072.753-1.754.165-.68.248-1.435.248-2.262 0-.96-.091-1.79-.273-2.49a5.686 5.686 0 0 0-.236-.683 12.74 12.74 0 0 0-2.686 3.365l1.673-1.243c.017.176.031.357.046.542.013.185.02.37.02.558 0 .7-.058 1.317-.174 1.848-.116.533-.281.978-.496 1.336s-.475.629-.782.811a1.956 1.956 0 0 1-1.021.273c-.25 0-.472-.042-.675-.113-.071.417-.119.84-.15 1.269.239.044.483.077.742.077.673.001 1.258-.133 1.758-.4z" style="fill:rgb(160, 200, 215);animation-play-state:paused" ></path>
<path d="M21.51 53.085v7.892h-2.779v1.34h6.791v-1.34h-2.416v-9.521h-1.273l-3.442 1.811.53 1.225z" fill="#a0c8d7" style="fill:rgb(160, 200, 215);animation-play-state:paused" ></path>
<path fill="#a0c8d7" d="M34.125 52.692a3.143 3.143 0 0 0-1.216-1.009 3.753 3.753 0 0 0-1.58-.326c-.667 0-1.252.134-1.754.402s-.92.645-1.253 1.132c-.335.489-.586 1.074-.754 1.758a9.502 9.502 0 0 0-.252 2.267c0 .96.091 1.789.273 2.49s.441 1.277.778 1.729c.336.452.742.788 1.216 1.005a3.738 3.738 0 0 0 1.58.327c.673 0 1.258-.134 1.758-.401a3.542 3.542 0 0 0 1.253-1.134c.336-.487.587-1.072.753-1.754.165-.68.248-1.435.248-2.262 0-.96-.091-1.79-.273-2.49-.182-.701-.441-1.278-.777-1.734zm-5.319 5.183c-.017-.16-.027-.325-.029-.496s-.004-.342-.004-.513c0-.7.058-1.316.174-1.848.116-.532.281-.979.496-1.34.215-.361.475-.633.782-.815a1.956 1.956 0 0 1 1.021-.273c.281 0 .535.047.761.141.226.094.427.225.604.392.177.169.328.369.455.6.127.232.232.488.314.769l-4.574 3.383zm4.74.938c-.116.533-.281.978-.496 1.336-.215.358-.475.629-.782.811a1.956 1.956 0 0 1-1.021.273c-.292 0-.553-.048-.782-.144s-.433-.232-.612-.406a2.413 2.413 0 0 1-.459-.624 4.197 4.197 0 0 1-.314-.794l4.574-3.4c.017.176.031.357.046.542.013.185.02.37.02.558-.001.7-.058 1.317-.174 1.848z" style="fill:rgb(160, 200, 215);animation-play-state:paused" ></path>
<path d="M40.139 53.085v7.892h-2.78v1.34h6.792v-1.34h-2.416v-9.521h-1.274l-3.441 1.811.529 1.225z" fill="#a0c8d7" style="fill:rgb(160, 200, 215);animation-play-state:paused" ></path>
<path fill="#a0c8d7" d="M52.753 52.692a3.143 3.143 0 0 0-1.216-1.009 3.753 3.753 0 0 0-1.58-.326c-.667 0-1.252.134-1.754.402s-.92.645-1.253 1.132c-.335.489-.585 1.074-.754 1.758a9.502 9.502 0 0 0-.252 2.267c0 .96.091 1.789.273 2.49.182.7.441 1.277.778 1.729.336.452.742.788 1.216 1.005a3.738 3.738 0 0 0 1.58.327c.673 0 1.258-.134 1.758-.401a3.542 3.542 0 0 0 1.253-1.134c.336-.487.587-1.072.753-1.754.165-.68.248-1.435.248-2.262 0-.96-.091-1.79-.273-2.49-.181-.701-.44-1.278-.777-1.734zm-5.318 5.183c-.017-.16-.027-.325-.029-.496s-.004-.342-.004-.513c0-.7.058-1.316.174-1.848s.281-.979.496-1.34c.215-.361.475-.633.782-.815a1.956 1.956 0 0 1 1.021-.273c.281 0 .535.047.761.141.226.094.427.225.604.392.176.169.328.369.455.6.127.232.232.488.314.769l-4.574 3.383zm4.739.938c-.116.533-.281.978-.496 1.336-.215.358-.475.629-.782.811a1.956 1.956 0 0 1-1.021.273c-.292 0-.553-.048-.782-.144s-.433-.232-.612-.406a2.413 2.413 0 0 1-.459-.624 4.197 4.197 0 0 1-.314-.794l4.574-3.4c.017.176.031.357.046.542.013.185.02.37.02.558 0 .7-.058 1.317-.174 1.848z" style="fill:rgb(160, 200, 215);animation-play-state:paused" ></path>
<path d="M56.178 54.492l2.589-1.407v7.892h-2.779v1.34h6.791v-1.34h-2.415v-9.521H59.09l-3.441 1.811z" fill="#a0c8d7" style="fill:rgb(160, 200, 215);animation-play-state:paused" ></path>
<path d="M69.678 51.456h-1.274l-3.441 1.811.529 1.225 2.59-1.407v7.892h-2.78v1.34h6.792v-1.34h-2.416z" fill="#a0c8d7" style="fill:rgb(160, 200, 215);animation-play-state:paused" ></path>
<path fill="#a0c8d7" d="M80.697 52.692a3.143 3.143 0 0 0-1.216-1.009 3.753 3.753 0 0 0-1.58-.326c-.667 0-1.252.134-1.754.402-.502.267-.92.645-1.253 1.132-.335.489-.585 1.074-.754 1.758a9.502 9.502 0 0 0-.252 2.267c0 .96.091 1.789.273 2.49.182.7.441 1.277.778 1.729.336.452.742.788 1.216 1.005a3.738 3.738 0 0 0 1.58.327c.673 0 1.258-.134 1.758-.401a3.542 3.542 0 0 0 1.253-1.134c.336-.487.587-1.072.753-1.754.165-.68.248-1.435.248-2.262 0-.96-.091-1.79-.273-2.49-.182-.701-.441-1.278-.777-1.734zm-5.319 5.183a5.27 5.27 0 0 1-.029-.496 29.244 29.244 0 0 1-.004-.513c0-.7.058-1.316.174-1.848.116-.532.281-.979.496-1.34.215-.361.475-.633.782-.815a1.956 1.956 0 0 1 1.021-.273c.281 0 .535.047.761.141.226.094.427.225.604.392.176.169.328.369.455.6.127.232.232.488.314.769l-4.574 3.383zm4.739.938c-.116.533-.281.978-.496 1.336s-.475.629-.782.811a1.956 1.956 0 0 1-1.021.273c-.292 0-.553-.048-.782-.144a1.958 1.958 0 0 1-.612-.406 2.413 2.413 0 0 1-.459-.624 4.197 4.197 0 0 1-.314-.794l4.574-3.4c.017.176.031.357.046.542.013.185.02.37.02.558 0 .7-.058 1.317-.174 1.848z" style="fill:rgb(160, 200, 215);animation-play-state:paused" ></path>
<path fill="#a0c8d7" d="M83.203 56.915c0 .96.091 1.789.273 2.49.182.7.441 1.277.778 1.729.336.452.742.788 1.216 1.005a3.738 3.738 0 0 0 1.58.327c.425 0 .8-.078 1.154-.189a12.96 12.96 0 0 0-.163-1.27 1.963 1.963 0 0 1-.908.226c-.292 0-.553-.048-.782-.144a1.958 1.958 0 0 1-.612-.406 2.413 2.413 0 0 1-.459-.624 4.197 4.197 0 0 1-.314-.794l2.021-1.502a12.667 12.667 0 0 0-.618-1.127l-1.676 1.24a5.27 5.27 0 0 1-.029-.496 29.244 29.244 0 0 1-.004-.513c0-.7.058-1.316.174-1.848.025-.113.058-.211.09-.312a12.646 12.646 0 0 0-1.101-1.083 5.703 5.703 0 0 0-.367 1.026 9.432 9.432 0 0 0-.253 2.265z" style="fill:rgb(160, 200, 215);animation-play-state:paused" ></path>
<path fill="#a0c8d7" d="M16.547 70.092c0-.96-.091-1.789-.273-2.49-.182-.7-.441-1.278-.778-1.733a3.143 3.143 0 0 0-1.216-1.009 3.753 3.753 0 0 0-1.58-.326 4.14 4.14 0 0 0-.884.099c.042.422.107.837.189 1.246.194-.065.394-.113.613-.113.281 0 .535.047.761.141.226.094.427.225.604.392.176.169.328.369.455.6s.232.488.314.769l-1.704 1.26c.187.386.393.761.616 1.124l1.361-1.011c.017.176.031.358.046.542a8.89 8.89 0 0 1-.125 2.212c.36.411.746.798 1.155 1.16.072-.193.145-.386.198-.602a9.59 9.59 0 0 0 .248-2.261z" style="fill:rgb(160, 200, 215);animation-play-state:paused" ></path>
<path fill="#a0c8d7" d="M24.81 65.869a3.143 3.143 0 0 0-1.216-1.009 3.753 3.753 0 0 0-1.58-.326c-.667 0-1.252.134-1.754.402s-.92.645-1.253 1.132c-.335.489-.586 1.074-.754 1.758a9.502 9.502 0 0 0-.252 2.267c0 .96.091 1.79.273 2.49.182.7.441 1.277.778 1.729.336.452.742.788 1.216 1.005a3.738 3.738 0 0 0 1.58.327c.673 0 1.258-.134 1.758-.401a3.542 3.542 0 0 0 1.253-1.134c.336-.487.587-1.072.753-1.754.165-.68.248-1.435.248-2.262 0-.96-.091-1.789-.273-2.49-.181-.701-.44-1.279-.777-1.734zm-5.318 5.182c-.017-.16-.027-.325-.029-.496s-.004-.342-.004-.513c0-.7.058-1.316.174-1.848.116-.532.281-.979.496-1.34.215-.361.475-.633.782-.815a1.956 1.956 0 0 1 1.021-.273c.281 0 .535.047.761.141.226.094.427.225.604.392.176.169.328.369.455.6s.232.488.314.769l-4.574 3.383zm4.739.939c-.116.533-.281.978-.496 1.336s-.475.629-.782.811a1.956 1.956 0 0 1-1.021.273c-.292 0-.553-.048-.782-.144a1.958 1.958 0 0 1-.612-.406 2.413 2.413 0 0 1-.459-.624 4.197 4.197 0 0 1-.314-.794l4.574-3.4c.017.176.031.358.046.542.013.185.02.37.02.558 0 .7-.058 1.317-.174 1.848z" style="fill:rgb(160, 200, 215);animation-play-state:paused" ></path>
<path d="M32.421 64.632h-1.274l-3.441 1.812.529 1.224 2.589-1.406v7.891h-2.779v1.341h6.791v-1.341h-2.415z" fill="#a0c8d7" style="fill:rgb(160, 200, 215);animation-play-state:paused" ></path>
<path fill="#a0c8d7" d="M43.439 65.869a3.143 3.143 0 0 0-1.216-1.009 3.753 3.753 0 0 0-1.58-.326c-.667 0-1.252.134-1.754.402s-.92.645-1.253 1.132c-.335.489-.586 1.074-.754 1.758a9.502 9.502 0 0 0-.252 2.267c0 .96.091 1.79.273 2.49.182.7.441 1.277.778 1.729.336.452.742.788 1.216 1.005a3.738 3.738 0 0 0 1.58.327c.673 0 1.258-.134 1.758-.401a3.542 3.542 0 0 0 1.253-1.134c.336-.487.587-1.072.753-1.754.165-.68.248-1.435.248-2.262 0-.96-.091-1.789-.273-2.49s-.44-1.279-.777-1.734zm-5.319 5.182c-.017-.16-.027-.325-.029-.496s-.004-.342-.004-.513c0-.7.058-1.316.174-1.848.116-.532.281-.979.496-1.34.215-.361.475-.633.782-.815a1.956 1.956 0 0 1 1.021-.273c.281 0 .535.047.761.141.226.094.427.225.604.392.177.169.328.369.455.6.127.232.232.488.314.769l-4.574 3.383zm4.74.939c-.116.533-.281.978-.496 1.336-.215.358-.475.629-.782.811a1.956 1.956 0 0 1-1.021.273c-.292 0-.553-.048-.782-.144s-.433-.232-.612-.406a2.413 2.413 0 0 1-.459-.624 4.197 4.197 0 0 1-.314-.794l4.574-3.4c.017.176.031.358.046.542.013.185.02.37.02.558 0 .7-.058 1.317-.174 1.848z" style="fill:rgb(160, 200, 215);animation-play-state:paused" ></path>
<path d="M51.049 64.632h-1.273l-3.442 1.812.53 1.224 2.589-1.406v7.891h-2.779v1.341h6.791v-1.341h-2.416z" fill="#a0c8d7" style="fill:rgb(160, 200, 215);animation-play-state:paused" ></path>
<path fill="#a0c8d7" d="M62.068 65.869a3.143 3.143 0 0 0-1.216-1.009 3.753 3.753 0 0 0-1.58-.326c-.667 0-1.252.134-1.754.402s-.92.645-1.253 1.132c-.335.489-.585 1.074-.754 1.758s-.252 1.439-.252 2.267c0 .96.091 1.79.273 2.49.182.7.441 1.277.778 1.729.336.452.742.788 1.216 1.005a3.738 3.738 0 0 0 1.58.327c.673 0 1.258-.134 1.758-.401a3.542 3.542 0 0 0 1.253-1.134c.336-.487.587-1.072.753-1.754.165-.68.248-1.435.248-2.262 0-.96-.091-1.789-.273-2.49-.182-.701-.441-1.279-.777-1.734zm-5.319 5.182c-.017-.16-.027-.325-.029-.496s-.004-.342-.004-.513c0-.7.058-1.316.174-1.848.116-.532.281-.979.496-1.34s.475-.633.782-.815a1.956 1.956 0 0 1 1.021-.273c.281 0 .535.047.761.141s.427.225.604.392c.176.169.328.369.455.6s.232.488.314.769l-4.574 3.383zm4.74.939c-.116.533-.281.978-.496 1.336-.215.358-.475.629-.782.811a1.956 1.956 0 0 1-1.021.273c-.292 0-.553-.048-.782-.144a1.958 1.958 0 0 1-.612-.406 2.413 2.413 0 0 1-.459-.624 4.197 4.197 0 0 1-.314-.794l4.574-3.4c.017.176.031.358.046.542.013.185.02.37.02.558 0 .7-.058 1.317-.174 1.848z" style="fill:rgb(160, 200, 215);animation-play-state:paused" ></path>
<path d="M69.678 64.632h-1.274l-3.441 1.812.529 1.224 2.59-1.406v7.891h-2.78v1.341h6.792v-1.341h-2.416z" fill="#a0c8d7" style="fill:rgb(160, 200, 215);animation-play-state:paused" ></path>
<path fill="#a0c8d7" d="M80.697 65.869a3.143 3.143 0 0 0-1.216-1.009 3.753 3.753 0 0 0-1.58-.326c-.667 0-1.252.134-1.754.402-.502.267-.92.645-1.253 1.132-.335.489-.585 1.074-.754 1.758s-.252 1.439-.252 2.267c0 .96.091 1.79.273 2.49.182.7.441 1.277.778 1.729.336.452.742.788 1.216 1.005a3.738 3.738 0 0 0 1.58.327c.673 0 1.258-.134 1.758-.401a3.542 3.542 0 0 0 1.253-1.134c.336-.487.587-1.072.753-1.754.165-.68.248-1.435.248-2.262 0-.96-.091-1.789-.273-2.49-.182-.701-.441-1.279-.777-1.734zm-5.319 5.182a5.27 5.27 0 0 1-.029-.496 29.244 29.244 0 0 1-.004-.513c0-.7.058-1.316.174-1.848.116-.532.281-.979.496-1.34s.475-.633.782-.815a1.956 1.956 0 0 1 1.021-.273c.281 0 .535.047.761.141.226.094.427.225.604.392.176.169.328.369.455.6s.232.488.314.769l-4.574 3.383zm4.739.939c-.116.533-.281.978-.496 1.336s-.475.629-.782.811a1.956 1.956 0 0 1-1.021.273c-.292 0-.553-.048-.782-.144a1.958 1.958 0 0 1-.612-.406 2.413 2.413 0 0 1-.459-.624 4.197 4.197 0 0 1-.314-.794l4.574-3.4c.017.176.031.358.046.542.013.185.02.37.02.558 0 .7-.058 1.317-.174 1.848z" style="fill:rgb(160, 200, 215);animation-play-state:paused" ></path>
<path fill="#a0c8d7" d="M87.033 64.632l-3.441 1.812.529 1.224 2.589-1.406v3.168a12.769 12.769 0 0 0 1.474-4.798h-1.151z" style="fill:rgb(160, 200, 215);animation-play-state:paused" ></path>
<path stroke-width="3.5" clip-rule="evenodd" fill-rule="evenodd" stroke-linejoin="round" stroke="#000" opacity=".2" stroke-miterlimit="10" d="M77.853 48.935c.625-1.971.964-4.069.964-6.247 0-11.402-9.243-20.645-20.645-20.645-.126 0-.249.011-.374.013 5.082 4.24 8.378 11.047 8.378 18.722 0 2.456-.339 4.821-.964 7.044 6.894 1.329 12.147 8.082 12.147 16.235 0 5.848-2.708 10.972-6.779 13.9h4.796C83.453 77.957 90 71.41 90 63.333c0-7.23-5.253-13.22-12.147-14.398z" style="animation-play-state:paused" ></path>
<path stroke-miterlimit="10" stroke-width="3.5" clip-rule="evenodd" fill-rule="evenodd" stroke-linejoin="round" stroke="#fff" fill="none" stroke-linecap="round" d="M30.235 41.403a9.713 9.713 0 0 1 5.298-3.445" style="stroke:rgb(255, 255, 255);animation-play-state:paused" ></path>
<path stroke-miterlimit="10" stroke-width="3.5" clip-rule="evenodd" fill-rule="evenodd" stroke-linejoin="round" stroke="#fff" fill="none" stroke-linecap="round" d="M28.317 46.972c0-.216.008-.43.023-.643" style="stroke:rgb(255, 255, 255);animation-play-state:paused" ></path>
<path d="M50.453 72.354h6.736" stroke-linecap="round" stroke="#fff" fill="none" stroke-miterlimit="10" stroke-linejoin="round" stroke-width="3.5" style="stroke:rgb(255, 255, 255);animation-play-state:paused" ></path>
<path d="M25.613 72.354h18.629" stroke-linecap="round" stroke="#fff" fill="none" stroke-miterlimit="10" stroke-linejoin="round" stroke-width="3.5" style="stroke:rgb(255, 255, 255);animation-play-state:paused" ></path>
<metadata xmlns:d="https://loading.io/stock/" style="animation-play-state:paused" ><d:name style="animation-play-state:paused" >open data</d:name>


<d:tags style="animation-play-state:paused" >open data,cloud,big data,data api,data storage,open government data,data literacy</d:tags>


<d:license style="animation-play-state:paused" >by</d:license>


<d:slug style="animation-play-state:paused" >x7cg4r</d:slug></metadata></g><!-- generated by https://loading.io/ --></svg>